<svg width="76" height="95" viewBox="0 0 76 95" fill="none" xmlns="http://www.w3.org/2000/svg">
<rect width="76" height="95" fill="none"/>
<rect x="1" y="1" width="74" height="93" stroke="black" stroke-width="2"/>
<path d="M26.096 11.396C27.08 11.396 28.124 11.564 29.228 11.9C30.356 12.236 31.316 12.704 32.108 13.304L30.308 16.184C29.66 15.584 28.904 15.128 28.04 14.816C27.2 14.504 26.36 14.348 25.52 14.348C24.728 14.348 23.984 14.504 23.288 14.816C22.616 15.104 22.064 15.536 21.632 16.112C21.2 16.688 20.984 17.384 20.984 18.2C20.984 18.992 21.212 19.664 21.668 20.216C22.124 20.768 22.712 21.272 23.432 21.728C24.152 22.16 24.92 22.604 25.736 23.06C26.552 23.516 27.32 24.032 28.04 24.608C28.784 25.184 29.384 25.88 29.84 26.696C30.296 27.512 30.524 28.52 30.524 29.72C30.524 31.496 30.092 33.032 29.228 34.328C28.364 35.624 27.212 36.632 25.772 37.352C24.332 38.048 22.76 38.396 21.056 38.396C19.784 38.396 18.5 38.228 17.204 37.892C15.932 37.532 14.732 37.016 13.604 36.344L15.476 33.068C16.364 33.836 17.24 34.424 18.104 34.832C18.968 35.24 19.976 35.444 21.128 35.444C22.016 35.444 22.856 35.228 23.648 34.796C24.44 34.364 25.076 33.788 25.556 33.068C26.06 32.324 26.312 31.496 26.312 30.584C26.312 29.72 26.084 29 25.628 28.424C25.172 27.824 24.572 27.296 23.828 26.84C23.108 26.384 22.34 25.94 21.524 25.508C20.732 25.052 19.976 24.548 19.256 23.996C18.536 23.444 17.936 22.784 17.456 22.016C17 21.224 16.772 20.252 16.772 19.1C16.772 17.348 17.204 15.908 18.068 14.78C18.956 13.628 20.108 12.776 21.524 12.224C22.94 11.672 24.464 11.396 26.096 11.396Z" fill="black"/>
<path d="M52.46 55.792L48.968 82H45.008L48.248 58.06L48.14 55.792H52.46ZM61.28 55.792H65.168L56.204 67.672L62.324 82H57.968L52.028 68.104L61.28 55.792Z" fill="black"/>
<path d="M1.5 93.5L74.5 2" stroke="black" stroke-width="2"/>
</svg>
