<svg width="419" height="314" viewBox="0 0 419 314" fill="none" xmlns="http://www.w3.org/2000/svg">
<rect width="419" height="314" fill="none"/>
<path fill-rule="evenodd" clip-rule="evenodd" d="M175.605 122.952C170.792 123.26 165.939 123.134 161.122 122.981C160.648 122.966 159.513 122.745 159.223 123.029C158.891 123.355 158.962 125.155 158.906 125.6C158.491 128.976 158.074 132.353 157.658 135.729C157.467 137.279 157.276 138.83 157.085 140.38C157.03 140.82 156.491 142.726 156.748 143.109C157.217 143.804 160.573 143.963 161.457 144.133L171.99 146.162C172.981 146.353 175.513 146.398 175.973 147.181C176.264 147.679 176.086 149.024 176.121 149.589L176.407 154.242C176.782 160.338 177.158 166.433 177.532 172.528C184.987 171.929 192.441 171.33 199.894 170.73C201.708 170.584 203.521 170.439 205.335 170.293C205.767 170.258 206.672 170.349 207.025 170.111C207.794 169.59 208.451 167.359 208.866 166.558C209.924 164.515 210.983 162.472 212.042 160.429C213.062 158.461 214.082 156.492 215.103 154.523C215.364 154.02 216.015 153.179 215.999 152.628C215.981 152.007 215.055 150.895 214.766 150.365C213.918 148.81 213.07 147.254 212.222 145.699C208.024 137.997 203.827 130.295 199.629 122.594C199.416 122.204 198.941 120.784 198.525 120.569C197.717 120.15 194.889 120.992 194.017 121.092C187.895 121.79 181.757 122.56 175.605 122.952Z" fill="#FF5678"/>
<path fill-rule="evenodd" clip-rule="evenodd" d="M104.604 109.722C106.092 111.487 107.58 113.253 109.068 115.019C113.013 110.148 116.959 105.278 120.905 100.408C118.927 99.5242 116.949 98.6402 114.971 97.7559C113.215 96.9716 113.44 97.3447 112.329 98.8997C109.754 102.507 107.178 106.115 104.604 109.722Z" fill="black"/>
<path fill-rule="evenodd" clip-rule="evenodd" d="M180.697 224.603C180.691 227.169 180.685 229.735 180.679 232.301C188.528 231.915 196.377 231.528 204.226 231.142C203.87 230.065 203.513 228.989 203.156 227.913C202.878 227.071 202.526 224.53 201.849 223.965C201.109 223.349 197.856 223.985 196.863 224.021C191.474 224.215 186.086 224.409 180.697 224.603Z" fill="black"/>
<path fill-rule="evenodd" clip-rule="evenodd" d="M161.999 30.3395C152.829 36.1321 143.66 41.9252 134.49 47.7182C136.515 50.0861 138.539 52.4535 140.563 54.8213C141.048 55.3887 141.134 55.7478 141.689 55.6926C142.334 55.6282 143.42 54.6153 143.958 54.2802C150.458 50.2341 156.958 46.1886 163.458 42.143C165.424 40.9185 167.391 39.6941 169.358 38.4701C166.905 35.7599 164.452 33.0497 161.999 30.3395Z" fill="black"/>
<path fill-rule="evenodd" clip-rule="evenodd" d="M375.045 120.88C374.713 118.187 373.356 115.45 372.362 112.956C371.191 110.017 369.958 107.103 368.696 104.203C367.896 102.367 367.606 102.818 365.516 102.9C363.073 102.996 360.63 103.092 358.188 103.187C360.069 110.015 361.95 116.844 363.83 123.672C364.156 124.854 364.682 129.285 365.708 129.883C366.063 130.091 367.29 129.824 367.693 129.809C368.845 129.765 369.997 129.722 371.15 129.679C372.716 129.621 374.282 129.562 375.848 129.503C375.63 126.626 375.397 123.745 375.045 120.88Z" fill="black"/>
<path fill-rule="evenodd" clip-rule="evenodd" d="M219.91 293.774C215.708 292.712 211.135 293.718 206.9 293.748C204.406 293.765 201.917 293.599 199.423 293.728C198.587 293.771 194.766 293.66 194.636 294.162C194.536 294.548 195.296 295.52 195.591 295.68C196.416 296.13 196.996 295.552 197.828 295.338C200.084 294.755 202.723 295.114 205.041 295.004C207.466 294.888 209.891 294.744 212.317 294.633C214.733 294.521 217.816 295.022 219.91 293.774ZM14.0037 75.9291C13.6812 75.1901 13.5487 74.0177 12.8078 73.5549C12.1217 73.1261 10.6837 73.4394 9.8907 73.4281C8.20441 73.4055 4.54319 73.4707 3.44155 75.0058C2.10222 76.8719 6.04233 78.2023 7.35639 78.167C9.63956 78.1049 11.7168 76.3511 14.0037 75.9291ZM55.9783 52.5056C56.1522 52.0328 55.5422 51.7204 55.1016 51.57C53.9804 51.1869 53.2428 51.8241 52.2561 52.3036C49.7646 53.514 47.0558 54.3142 44.4348 55.1886C42.153 55.9498 40.0365 57.0167 37.7986 57.8739C36.2123 58.4816 32.8641 58.3634 31.9507 59.8967C30.1467 62.9256 34.8719 60.6538 35.7042 60.3599C38.0934 59.5176 40.6365 58.9982 42.978 58.0355C45.2322 57.109 47.5303 56.1667 49.761 55.1632C50.7785 54.7054 51.7905 54.3169 52.828 53.917C53.7988 53.543 54.9459 52.6043 55.9783 52.5056ZM124.161 105.003C123.566 104.638 121.126 102.601 120.306 102.87C119.666 103.08 118.95 105.421 118.551 106.035C116.552 109.112 114.397 112.062 112.255 115.038C113.206 115.549 114.156 116.06 115.107 116.571C117.046 111.977 120.785 108.539 124.161 105.003ZM161.158 121.425C164.218 121.432 167.25 121.049 170.306 121.091C173.732 121.139 177.097 121.231 180.519 120.952C183.886 120.676 187.24 120.663 190.607 120.458C191.666 120.394 197.564 119.944 194.109 118.257C192.947 117.69 191.549 118.397 190.286 118.652C188.823 118.947 187.347 119.057 185.869 119.235C184.46 119.405 182.963 119.874 181.542 119.839C180.051 119.803 178.931 119.537 177.433 119.752C174.326 120.199 171.232 119.949 168.126 119.661C165.985 119.462 161.284 118.258 161.158 121.425ZM244.437 295.677C246.407 294.088 249.522 294.776 251.862 294.27C254.446 293.71 252.411 290.971 251.42 289.513C250.387 287.993 248.832 284.954 247.095 287.204C245.281 289.555 245.068 292.87 244.437 295.677ZM182.438 226.66C182.372 228.088 181.665 229.557 183.15 230.047C184.575 230.517 187.021 229.803 188.498 229.675C190.423 229.509 192.317 229.191 194.236 228.993C195.092 228.905 195.953 228.839 196.814 228.918C197.407 228.972 198.837 229.616 199.367 229.349C200.018 229.022 200.334 227.256 199.802 226.575C199.225 225.836 195.743 226.568 194.497 226.663C190.437 226.97 186.48 226.479 182.438 226.66ZM182.189 222.08C184.058 221.31 186.279 221.67 188.247 221.66C190.562 221.648 192.851 221.774 195.161 221.924C196.183 221.991 199.165 222.749 200.022 222.094C200.473 221.751 200.636 218.804 200.253 218.352C199.629 217.614 197.671 218.502 196.869 218.622C194.721 218.941 192.529 218.933 190.362 218.913C188.333 218.895 186.299 218.804 184.271 218.8C181.869 218.794 182.194 220.021 182.189 222.08ZM117.895 101.259C117.131 100.816 114.625 98.7816 113.689 99.0904C112.892 99.353 112.046 101.781 111.571 102.544C110.664 103.997 109.707 105.422 108.768 106.855C108.167 107.771 106.567 109.426 106.84 110.664C106.985 111.324 108.319 112.462 108.992 112.262C109.687 112.056 110.831 109.472 111.216 108.963C113.303 106.206 115.925 104.132 117.895 101.259ZM360.919 104.243C363.593 109.486 363.938 115.413 365.387 121.039C365.724 122.349 366.244 123.641 366.53 124.959C366.69 125.693 366.396 126.95 366.807 127.575C367.836 129.139 372.593 128.642 373.62 127.265C374.223 126.457 373.754 125.618 373.498 124.778C373.151 123.645 373.317 122.657 373.116 121.525C372.714 119.257 370.671 116.968 369.701 114.875C368.642 112.587 368.155 109.836 366.637 107.793C365.622 106.427 362.773 103.606 360.919 104.243ZM186.52 308.741C190.1 308.27 195.729 307.206 195.541 302.396C195.355 297.616 189.087 296.767 185.598 296.347C184.576 296.225 184.464 296.166 183.426 296.786C182.713 297.212 182.002 297.667 181.337 298.163C180.041 299.131 178.574 300.448 178.297 302.136C177.596 306.422 183.38 308.36 186.52 308.741ZM166.064 37.1624C167.688 37.3344 165.528 35.7563 165.119 35.5652C163.876 34.9856 162.496 35.0907 161.177 35.3112C157.985 35.8446 155.161 38.524 152.433 40.1809C149.546 41.9347 146.695 43.9181 143.684 45.4487C142.307 46.1492 141.169 46.7433 140.025 47.788C139.442 48.3205 139.24 48.69 138.456 48.6896C138.021 48.6896 137.052 47.6739 136.589 48.2617C135.298 49.9018 141.805 50.4325 142.485 50.3216C145.878 49.7664 148.821 48.479 151.733 46.7329C154.706 44.951 157.862 43.5042 160.85 41.7694C162.141 41.0191 163.247 40.0247 164.425 39.1335C164.593 39.0058 164.898 38.5756 165.069 38.4122C165.342 38.4928 165.572 38.4217 165.756 38.1993C165.852 37.8516 165.954 37.5056 166.064 37.1624ZM231.704 293.819C228.404 294.99 223.009 295.902 221.46 299.773C219.706 304.159 227.59 307.286 230.684 307.524C233.934 307.774 239.711 306.458 240.163 302.417C240.424 300.09 238.579 298.606 236.856 297.445C235.095 296.259 232.58 296.005 231.704 293.819ZM20.5278 49.5654C18.1949 49.8334 16.6093 50.0635 14.751 51.5773C13.209 52.8339 11.9386 54.1032 11.3103 56.0417C9.85764 60.5216 13.4479 64.3679 18.0599 63.8462C18.5684 63.7887 19.0649 63.6008 19.5811 63.6524C20.0553 63.7004 20.3867 64.0405 20.7875 64.1089C21.7322 64.2692 21.9152 64.1034 22.6903 63.3685C24.2712 61.8683 25.8584 60.2204 26.7341 58.1963C28.843 53.3216 25.6713 49.6528 20.5278 49.5654ZM73.5671 40.2289C73.7935 35.1839 66.1135 34.3548 62.5724 34.7384C58.5513 35.1744 51.9549 39.2567 53.4859 44.2654C54.834 48.6737 62.4379 48.3377 65.7241 47.4416C66.4273 47.25 67.52 46.8339 68.2119 46.9747C69.2512 47.1853 69.3015 48.0407 70.2809 47.2663C70.8963 46.7795 71.4524 45.3617 71.8867 44.6635C72.7529 43.2724 73.2003 41.8215 73.5671 40.2289ZM181.512 247.416C181.406 248.496 180.994 249.885 182.156 250.399C182.875 250.717 184.869 250.369 185.591 250.394C188.604 250.502 191.696 250.262 194.691 250.502C195.576 250.572 198.222 251.471 199.01 250.868C199.781 250.279 199.179 248.437 199.128 247.613C198.918 244.248 199.369 240.977 199.514 237.63C199.553 236.731 199.924 234.548 199.235 233.882C198.396 233.072 196.534 233.54 195.534 233.642C192.415 233.957 189.206 234.42 186.07 234.427C185.21 234.429 183.304 233.818 182.558 234.14C181.411 234.634 181.681 236.36 181.618 237.462C181.426 240.784 181.298 244.091 181.512 247.416ZM111.383 96.7778C107.293 93.7479 103.054 90.8752 98.9645 87.9291C97.5082 86.8803 96.4255 85.3828 95.0611 84.3594C94.2053 83.7164 93.9444 83.437 92.7743 84.0574C91.4226 84.7746 90.166 85.9008 88.9189 86.7906C87.8715 87.5378 86.8192 88.2786 85.7704 89.0226C84.7986 89.7118 84.473 89.8685 85.1618 91.0133C86.3736 93.0279 88.8899 94.8456 90.5351 96.5025C94.5951 100.591 98.5606 104.821 103.122 108.352C104.69 103.778 107.934 100.058 111.383 96.7778ZM157.23 26.1632C150.13 23.358 149.592 13.8594 147.108 7.80494C146.339 11.9497 148.38 18.6859 144.935 21.9409C142.817 23.9425 141.59 21.1177 140.453 19.5801C138.721 17.239 136.862 15.0007 135.209 12.5999C135.717 15.4962 137.171 18.7467 136.899 21.6919C136.686 24.0041 135.208 27.1714 133.057 24.5494C131.58 22.7486 129.689 21.0642 127.966 19.4671C125.895 17.5471 123.532 16.3068 121.281 14.6692C122.153 19.0006 123.814 22.8453 126.264 26.511C127.521 28.392 128.896 30.1983 130.082 32.1255C131.052 33.7009 131.509 35.6603 132.794 36.9989C133.994 38.2491 135.759 39.2472 137.196 40.2076C139.242 41.5752 139.732 41.1862 141.614 39.8866C145.256 37.3716 149.21 35.3578 152.876 32.8745C152.198 31.9775 151.114 31.0913 151.149 29.87C151.178 28.8815 151.935 27.9816 152.947 28.0999C153.741 28.1927 154.108 29.0241 154.991 28.7434C155.738 28.5061 156.758 26.7236 157.23 26.1632ZM401.708 101.806C398.417 102.194 395.346 103.366 391.974 103.153C390.609 103.066 389.59 103.318 388.991 101.948C388.512 100.854 389.002 99.1914 387.498 98.8934C386.384 98.6729 385.005 99.708 384.181 100.294C382.701 101.346 381.389 102.281 379.713 103.024C376.741 104.342 373.725 105.488 370.477 105.632C371.263 108.018 372.091 110.408 373.179 112.676C374.222 114.85 375.248 116.699 375.558 119.12C375.691 120.157 375.691 121.286 376.708 121.742C377.706 122.189 379.485 121.821 380.565 121.84C383.039 121.884 385.514 121.942 387.988 121.948C389.873 121.951 391.749 122.401 393.585 122.375C395.867 122.342 398.449 121.35 400.675 120.879C404.892 119.987 410.794 119.433 414.155 116.556C411.044 116.067 407.875 116.4 404.819 117.07C403.42 117.378 400.211 118.976 399.273 117.376C398.156 115.469 400.342 112.836 401.885 111.95C403.625 110.95 406.223 111.058 407.449 109.255C405.132 109.451 402.691 109.536 400.451 110.218C398.734 110.74 396.519 112.227 395.84 109.651C394.739 105.478 398.838 103.499 401.708 101.806ZM156.167 137.536C156.748 132.011 157.815 126.428 157.91 120.866C157.95 118.463 155.235 118.893 153.335 118.21C150.573 117.218 147.865 116.043 145.153 114.924C142.449 113.808 139.731 112.732 137.018 111.639C134.555 110.647 132.191 109.147 129.708 108.265C128.356 107.785 128.251 108.254 127.467 109.494C126.704 110.701 125.902 111.882 125.073 113.043C123.33 115.484 121.465 117.833 119.558 120.146C125.295 123.6 131.284 126.792 137.205 129.923C143.246 133.118 149.818 135.052 156.167 137.536ZM278.729 116.578C281.764 116.585 284.719 116.149 287.74 116.056C290.727 115.965 293.616 116.095 296.578 116.173C299.423 116.248 302.213 116.825 305.05 116.959C305.74 116.992 306.458 116.989 307.144 117.065C307.834 117.142 308.243 117.399 308.883 117.507C310.458 117.775 311.99 117.396 313.578 117.482C319.433 117.794 325.201 118.997 331.058 119.302C337.078 119.615 342.954 120.083 348.947 120.804C352.115 121.186 355.287 121.41 358.469 121.634C359.121 121.679 360.519 122.09 360.876 121.346C361.31 120.442 359.838 117.353 359.566 116.396C359.214 115.152 358.924 113.881 358.451 112.674C358.174 111.97 357.59 109.668 357.028 109.221C356.244 108.598 355.073 109.197 354.159 109.329C352.305 109.596 350.421 109.756 348.558 109.94C345.799 110.213 343.038 110.864 340.281 110.947C337.169 111.04 334.072 110.907 330.964 110.791C324.738 110.558 318.362 110.678 312.168 110.043C305.011 109.307 297.821 109.009 290.647 108.469C288.947 108.341 287.241 108.309 285.539 108.206C284.322 108.133 281.836 107.279 280.698 107.675C279.542 108.078 279.762 109.446 279.631 110.509C279.381 112.538 279.058 114.561 278.729 116.578ZM204.204 172.879C199.885 173.543 195.648 173.803 191.282 173.928C189.356 173.983 187.443 174.076 185.525 174.269C183.922 174.43 183.022 174.5 182.963 176.256C182.702 183.957 182.284 191.575 182.047 199.279C181.913 203.629 182.067 207.984 182.052 212.335C182.046 213.986 181.708 215.177 183.523 215.37C185.728 215.604 188.041 215.296 190.26 215.317C192.302 215.337 194.345 215.387 196.387 215.432C197.698 215.46 200.129 216.112 200.569 214.525C200.709 214.017 200.457 213.125 200.47 212.564C200.494 211.518 200.623 210.463 200.686 209.419C200.831 207.022 200.936 204.624 201.082 202.227C201.677 192.409 203.278 182.671 204.204 172.879ZM154.754 50.6485C157.602 52.8339 160.842 54.3377 163.888 56.2491C165.347 57.1656 166.757 58.1487 168.187 59.1092C169.658 60.0977 171.368 60.6968 172.758 61.7945C175.449 63.92 178.778 65.274 181.734 67.1179C184.737 68.9922 187.731 70.8692 190.802 72.6298C192.162 73.4091 193.648 73.8773 195.042 74.5801C196.713 75.4228 198.229 76.5268 199.923 77.3319C203.549 79.0568 207.169 80.783 210.78 82.5408C217.868 85.9909 225.132 89.1789 232.368 92.3052C233.91 92.9713 235.531 93.2638 237.156 93.6573C237.923 93.843 238.896 93.9395 239.588 94.3085C239.803 94.4235 240.031 94.4398 240.202 94.6327C240.528 95.0032 240.251 95.5216 240.452 95.797C241.579 97.3393 244.708 93.0053 245.436 91.9552C246.559 90.3322 246.103 90.0696 244.368 89.3962C242.618 88.717 240.851 88.0767 239.12 87.3512C235.931 86.0145 232.669 84.502 229.622 82.8646C226.453 81.1611 223.152 79.7546 220.017 77.9777C216.499 75.9852 213.01 73.952 209.453 72.0298C203.452 68.7871 197.939 64.6985 192.109 61.1786C188.89 59.2355 185.864 56.9229 182.749 54.7833C179.709 52.6953 176.828 50.3637 173.724 48.4129C172.017 47.3397 170.241 46.4467 168.645 45.2073C167.453 44.2813 166.263 43.3308 164.768 44.1083C163.152 44.9483 161.627 46.3607 160.058 47.3361C158.288 48.4374 156.521 49.5441 154.754 50.6485ZM286.996 86.7902C286.072 86.3061 282.677 85.0146 284.271 83.432C285.405 82.3058 288.087 83.8024 289.186 84.1747C289.163 82.6178 289.165 81.5437 288.665 80.0593C288.161 78.5677 288.301 77.4397 289.528 76.309C290.089 75.7919 292.124 75.3458 292.36 74.6675C292.727 73.6133 290.901 73.948 290.278 73.8003C286.985 73.0215 287.183 69.5691 287.102 66.9259C287.005 63.8182 286.278 60.8299 283.877 58.8103C282.792 57.8979 282.4 57.8965 281.064 58.4956C280.571 58.7161 280.128 59.0716 279.585 59.1694C278.816 59.3075 278.301 58.8067 277.617 58.8407C276.557 58.8932 275.476 60.6461 274.444 61.2062C273.108 61.9317 271.793 61.7152 270.473 62.2342C269.299 62.6956 268.164 63.9481 267.069 64.6142C265.578 65.5213 265.917 66.4111 266.013 68.1934C266.092 69.68 266.044 70.6554 264.582 71.207C264.111 71.3849 263.282 71.3048 262.881 71.591C262.288 72.0135 262.609 72.3309 262.418 73.0378C261.934 74.8251 260.909 73.7342 259.6 73.4956C258.006 73.2044 256.251 74.3292 257.083 76.04C257.381 76.6522 258.021 77.2097 258.661 77.4003C259.418 77.6254 260.363 77.0055 261.061 77.2853C262.842 77.999 261.418 79.6898 261.503 80.8418C262.584 80.2554 262.952 78.5741 264.069 80.4379C264.876 81.7846 264.555 83.8309 264.355 85.3013C263.889 88.7038 262.846 92.8717 260.633 95.6009C260.314 95.9939 259.838 96.7325 259.239 96.6392C258.741 96.5622 258.681 95.9156 258.25 95.7503C257.326 95.3944 255.911 95.9215 255.556 96.7773C254.958 98.2237 255.021 100.346 254.974 101.877C254.919 103.639 254.712 105.632 255.139 107.361C255.869 110.313 258.616 111.341 261.287 111.993C262.776 112.356 264.408 112.779 265.915 112.269C267.559 111.713 268.689 110.219 269.847 109.014C270.719 108.108 272.409 107.076 272.523 105.766C272.576 105.152 272.14 104.307 272.04 103.678C271.882 102.681 271.838 101.674 271.864 100.664C271.913 98.8114 272.432 96.9272 272.274 95.0738C272.111 93.1778 270.701 93.0415 269.934 91.5811C269.476 90.7099 269.369 89.3532 270.481 89.0566C271.128 88.8845 272.338 89.3749 273.038 89.4248C274.107 89.5008 275.188 89.5176 276.259 89.528C278.233 89.5484 279.72 89.4469 281.507 88.5875C283.346 87.7035 284.988 87.152 286.996 86.7902ZM241.232 294.503C241.306 292.887 241.531 291.271 242.032 289.728C242.457 288.417 243.37 287.269 243.524 285.914C243.845 283.086 242.907 280.43 240.182 279.41C237.539 278.42 234.676 278.436 231.917 278.622C230.314 278.73 228.956 278.181 227.384 278.254C225.729 278.33 224.269 278.103 222.625 277.929C219.572 277.604 216.971 276.26 214.006 275.692C212.555 275.414 212.054 276.033 211.166 277.054C210.188 278.178 209.087 279.124 207.847 279.95C205.943 281.22 202.535 283.552 202.353 279.616C202.201 276.312 205.509 273.865 207.553 271.725C205.483 270.846 205.66 267.579 203.255 268.894C202.211 269.464 201.387 270.308 200.423 270.992C199.612 271.568 197.75 273.172 196.682 273.047C195.176 272.87 195.015 270.73 195.241 269.542C195.651 267.385 197.905 266.143 199.506 264.876C200.473 264.11 201.92 263.508 202.742 262.609C203.615 261.653 203.421 260.582 203.391 259.381C203.378 258.835 203.788 256.776 203.565 256.304C203.223 255.576 202.035 255.769 201.189 255.694C199.618 255.553 198.06 255.278 196.495 255.13C195.269 255.014 194.091 255.291 192.864 255.336C189.764 255.449 186.628 255.288 183.524 255.279C182.961 255.277 180.601 254.874 180.209 255.361C179.871 255.781 180.193 257.728 180.191 258.231C180.181 261.355 180.191 264.474 180.284 267.596C180.468 273.758 180.262 280.084 178.997 286.139C178.768 287.236 178.046 288.452 179.158 288.992C180.014 289.408 182.297 288.762 183.23 288.701C186.255 288.503 189.313 288.698 192.321 288.479C197.559 288.095 202.976 288.447 208.319 288.571C215.426 288.737 222.494 289.506 229.599 289.688C232.687 289.767 235.829 289.203 238.877 289.296C240.075 289.333 240.414 289.636 240.482 290.92C240.562 292.446 239.899 293.265 241.232 294.503ZM92.0942 76.6314C89.3641 72.0198 86.7906 67.3167 84.0632 62.7037C82.8315 60.6207 81.4482 58.6405 80.0729 56.6512C79.3683 55.6319 78.5894 54.6022 78.051 53.4796C77.5574 52.4521 77.4103 51.2703 76.8293 50.284C75.7303 52.7139 73.371 54.047 70.9017 54.9169C68.9831 55.5925 67.1111 56.5607 65.1096 56.9777C59.874 58.0699 54.695 60.4228 49.5576 62.1287C38.6485 65.7504 26.9877 67.7392 16.485 72.445C20.0687 75.9925 18.9553 83.5565 24.935 84.7004C27.3142 85.1559 29.7989 84.4237 32.0757 83.7965C34.9507 83.0041 37.828 82.218 40.7062 81.4346C43.8289 80.5837 46.9829 79.923 50.1309 79.1804C51.7122 78.8073 53.3034 78.5482 54.8879 78.2122C56.2074 77.9319 56.2233 77.658 56.9148 76.4145C58.0844 74.3129 60.2535 72.1633 62.0883 74.936C62.8355 76.0654 62.677 77.4827 63.3318 78.6021C63.891 79.5581 65.087 80.0539 65.9279 80.6996C66.5111 79.0527 67.208 76.8216 68.4972 75.5564C69.9037 74.1757 71.3011 75.2865 71.8074 76.909C72.4156 78.8584 71.519 81.2313 71.1268 83.1494C70.9353 84.0872 70.5716 85.1645 70.7917 86.1263C71.0842 87.4042 72.1977 88.7215 72.8611 89.8305C79.0617 85.2089 85.3959 80.4895 92.0942 76.6314ZM213.311 154.274C211.495 151.813 209.576 149.632 208.214 146.875C206.757 143.929 205.579 140.755 204.025 137.883C202.482 135.031 201.062 132.125 199.654 129.197C198.671 127.154 197.552 122.247 194.737 122.37C193.331 122.431 191.896 122.938 190.481 123.077C188.823 123.24 187.158 123.231 185.502 123.433C181.868 123.877 178.332 124.672 174.665 124.887C171.515 125.072 168.323 125.167 165.168 125.03C164.309 124.993 162.071 124.323 161.274 124.706C160.345 125.154 160.655 126.899 160.577 127.792C160.28 131.15 159.827 134.512 159.316 137.844C159.229 138.412 158.351 141.251 158.744 141.731C159.35 142.471 161.954 141.976 162.803 142.042C166.154 142.3 169.446 143.065 172.784 143.436C174.477 143.623 176.171 143.666 177.874 143.672C179.527 143.678 181.94 143.222 183.509 143.788C184.518 144.153 185.09 145.01 184.764 146.102C184.405 147.305 183.238 147.574 182.155 147.8C181.361 147.965 179.059 147.873 178.559 148.603C178.018 149.393 178.965 150.882 179.233 151.631C179.745 153.068 179.454 153.684 179.416 155.09C179.376 156.568 180.232 157.869 180.118 159.365C180.006 160.826 179.946 161.993 180.088 163.484C180.213 164.793 180.126 166.227 180.31 167.498C180.735 170.442 187.099 168.661 189.074 168.617C193.156 168.526 197.255 169.186 201.322 168.991C202.518 168.933 205.292 169.15 206.136 168.134C206.991 167.105 207.127 164.757 207.678 163.484C209.118 160.157 211.265 157.24 213.311 154.274ZM249.66 88.7654C249.362 92.1802 249.197 94.8107 247.152 97.6844C244.968 100.753 242.458 100.478 239.01 100.815C235.916 101.118 233.488 102.141 231.003 103.97C228.08 106.121 224.927 107.908 221.812 109.759C215.886 113.283 208.819 114.257 202.09 115.303C200.398 115.567 197.275 116.324 199.266 118.329C201.406 120.485 202.604 123.666 204.043 126.363C207.339 132.548 209.866 139.19 213.627 145.113C215.146 147.506 216.963 150.393 219.295 152.082C221.508 153.685 225.951 150.708 228.205 149.723C231.133 148.443 234.206 147.472 236.965 145.892C239.539 144.419 242.158 143.148 244.862 141.935C247.518 140.743 250.09 139.557 252.872 138.688C256.145 137.665 259.604 137.302 262.929 136.411C266.34 135.497 269.032 134.528 271.788 132.267C273.069 131.217 274.63 130.166 275.146 128.506C275.674 126.808 275.285 124.642 275.205 122.901C275.121 121.081 274.838 119.216 274.876 117.396C274.913 115.56 275.813 114.12 276.357 112.414C277.214 109.723 278.19 104.843 275.474 103.031C275.282 105.906 274.268 108.486 273.319 111.183C272.404 113.781 270.902 115.37 268.656 116.885C267.802 117.461 266.878 118.263 265.866 118.525C264.794 118.803 263.293 118.66 262.178 118.673C259.67 118.699 256.952 118.042 255.02 116.351C251.11 112.928 250.257 106.794 250.634 101.928C250.852 99.1293 251.313 96.3096 252.596 93.7846C253.037 92.9161 253.914 91.9896 253.425 90.973C252.912 89.9084 250.618 89.264 249.66 88.7654ZM172.509 148.397C167.897 147.795 163.094 147.304 158.615 146.003C156.985 145.529 155.018 144.93 155.001 142.975C154.996 142.375 155.445 141.291 155.186 140.727C154.922 140.149 153.27 140.11 152.506 139.958C143.621 138.196 135.368 134.752 127.436 130.438C119.414 126.076 112.004 120.928 104.435 115.844C97.0495 110.884 90.9132 104.827 84.7746 98.4569C83.922 97.5721 83.0471 96.7099 82.1663 95.8527C81.5238 95.2269 80.6312 93.9526 79.7867 93.613C78.2684 93.0026 76.1455 95.3152 74.8033 96.0035C73.0568 96.8991 70.9737 97.0345 69.8213 95.1472C69.0601 93.9005 69.7679 93.6727 69.877 92.4995C69.9667 91.5349 69.3064 90.9884 68.7259 90.3168C68.2781 91.3737 67.6826 93.3078 66.1584 93.0673C64.7886 92.8518 64.6382 90.9635 64.5409 89.8871C64.4267 88.6319 64.818 87.0374 63.9685 86.0217C63.3006 85.2225 61.9951 84.6383 61.1397 85.3624C59.4189 86.8187 60.5351 91.1564 58.1066 92.2377C54.6828 93.7615 55.0165 86.8069 54.944 85.4168C47.2786 86.2645 40.074 89.6127 32.4004 90.7085C29.2772 91.1546 25.67 91.0083 22.9443 89.2255C20.4381 87.5867 17.8353 83.9804 16.7638 81.2131C14.1932 83.1186 11.5056 84.5795 8.20482 83.7295C4.8494 82.8651 1.89758 81.0035 0.664664 77.6308C-0.573145 74.2459 -0.215185 71.668 2.87483 69.7575C4.13913 68.9754 5.13884 68.5923 6.53034 68.2147C8.07109 67.7967 10.0228 67.4942 11.4775 66.8322C9.97755 64.6405 8.27129 62.4936 7.5896 59.8749C6.82065 56.9216 7.20429 53.5987 8.39686 50.8061C10.5524 45.7589 16.6118 42.3821 22.0698 43.5355C26.8329 44.5421 30.2037 48.6656 31.5563 53.1758C32.1713 55.2262 31.6315 56.4941 34.1397 55.3851C36.988 54.1249 39.4804 52.271 42.4224 51.1593C44.975 50.1943 47.7581 49.3838 50.1228 47.9986C51.3468 47.2817 51.2893 47.2201 50.7902 45.9047C50.1708 44.2709 49.7877 42.7498 49.9258 40.9743C50.3211 35.8908 54.5288 32.2872 59.0313 30.6144C64.136 28.7185 70.4657 29.4674 74.2907 33.5651C76.1491 35.5562 77.4175 38.1726 77.5796 40.9122C77.6521 42.1267 76.928 43.9725 77.3319 45.0923C77.6833 46.0663 79.3461 46.8135 79.9878 47.7445C81.0057 49.223 81.4771 50.9922 82.4874 52.4961C83.3632 53.798 84.2503 55.0894 85.0916 56.4148C87.1361 59.6322 89.0521 62.9288 90.723 66.3567C91.4874 67.9249 92.2051 69.5157 92.9052 71.1137C93.3865 72.2095 93.7832 74.2115 94.6481 75.0845C95.5221 75.9671 96.8249 75.6846 97.5748 76.8017C98.5198 78.2082 97.6223 79.4516 96.8733 80.677C102.568 82.3452 106.065 87.1669 110.622 90.7008C115.222 94.2673 120.272 97.3561 125.217 100.414C130.365 103.598 135.419 106.632 141.024 108.946C146.246 111.102 151.294 113.643 156.502 115.826C157.231 116.132 157.8 116.537 158.522 116.062C159.19 115.622 159.324 114.204 160.022 113.629C161.79 112.173 165.95 112.981 168.054 112.948C171.09 112.901 174.169 112.729 177.202 112.886C178.229 112.939 179.221 113.348 180.227 113.212C181.768 113.005 183.208 112.69 184.812 112.625C186.148 112.571 187.481 112.472 188.819 112.52C189.453 112.543 190.525 112.815 191.094 112.383C191.804 111.846 191.376 110.555 191.861 109.773C192.175 109.265 192.796 109.127 193.1 108.727C193.062 108.778 193.585 107.875 193.44 107.99C194.375 107.252 196.99 107.029 198.095 107.292C198.414 107.368 198.466 107.905 198.867 107.906C199.267 107.907 199.298 107.503 199.58 107.407C199.874 107.306 199.953 106.899 200.345 106.838C200.779 106.769 201.334 107.257 201.803 107.284C202.332 107.315 202.837 106.964 203.329 106.827C203.983 106.646 204.488 106.779 205.033 106.715C206.026 106.597 207.094 106.485 208.126 106.364C209.627 106.188 211.09 105.72 212.554 105.364C213.196 105.207 213.837 105.025 214.499 104.975C215.264 104.917 216.259 105.277 216.98 105.107C217.597 104.961 217.095 104.741 217.629 104.556C218.208 104.355 218.833 104.3 219.419 104.097C220.766 103.631 222.008 102.857 223.218 102.118C226.037 100.398 228.558 98.254 231.344 96.4875C230.708 95.5619 228.34 95.4053 227.338 95.0779C225.96 94.6273 224.607 94.0993 223.258 93.5672C220.192 92.3568 217.148 91.0875 214.106 89.8201C208.335 87.4155 202.53 85.0957 197.014 82.1455C191.833 79.3747 186.299 77.2151 181.161 74.3451C178.547 72.8847 175.93 71.3478 173.389 69.7643C171.022 68.2889 168.475 67.2832 166.022 65.9342C161.232 63.2988 156.832 60.0198 152.023 57.4405C150.887 56.8315 149.626 55.5418 148.4 55.2103C147.347 54.9255 146.278 55.5133 145.326 55.9253C144.318 56.3619 143.371 57.0787 142.239 57.1031C140.993 57.1303 139.567 56.4588 138.391 56.0517C136.205 55.2959 134.307 53.2007 133.512 51.0185C133.124 49.9516 132.944 48.7666 132.801 47.644C132.631 46.3136 133.08 44.7495 132.756 43.4843C132.14 41.078 129.292 38.8184 127.7 37.0922C125.723 34.9489 124.01 32.5503 122.449 30.0919C118.96 24.5951 116.539 18.0753 118.484 11.6056C118.781 10.6195 119.309 8.99017 120.182 8.33389C121.393 7.42207 121.912 8.48613 122.959 9.01467C124.261 9.67141 125.496 10.0538 126.716 10.9461C128.195 12.0273 129.411 13.346 130.774 14.5554C130.782 11.7628 130.347 9.31467 130.95 6.518C131.259 5.08253 131.951 2.09648 133.778 1.84059C135.672 1.57487 137.03 5.00826 137.854 6.26088C139.387 8.58856 141.1 10.7726 142.806 12.9738C143.027 9.55875 142.574 1.4402 146.867 0.0969237C150.714 -1.1071 152.703 9.26038 153.635 11.5803C154.504 13.7448 155.724 15.8831 157.044 17.8059C158.428 19.8205 159.936 18.794 162.08 18.8887C164.061 18.9765 164.953 20.3474 164.931 22.2911C164.903 24.7502 162.949 26.5465 161.597 28.4019C164.523 29.8166 168.312 31.6564 170.06 34.5695C170.447 35.2147 170.714 35.9556 170.738 36.7172C170.761 37.4703 170.072 38.8492 170.43 39.5451C170.691 40.0541 171.573 40.2384 172.043 40.5156C173.015 41.0888 173.877 41.8306 174.837 42.4247C181.13 46.3204 187.047 50.975 193.117 55.0876C198.598 58.8013 204.404 62.1092 209.948 65.8206C216.999 70.5395 224.411 74.5547 231.957 78.4341C233.698 79.3294 235.312 80.3233 236.982 81.325C238.697 82.3529 240.743 83.0471 242.572 83.8794C243.854 84.4622 245.253 85.5716 246.599 85.9348C248.2 86.3672 248.874 84.6682 250.74 85.1088C252.35 85.4888 254.105 85.6568 255.072 87.1058C255.919 88.3764 255.84 90.32 257.205 91.1414C258.788 92.0928 259.232 91.0726 259.598 89.7508C260.014 88.2465 261.189 86.5266 259.747 85.4439C258.384 84.421 256.454 84.3082 254.859 83.9301C254.051 83.7386 252.98 83.0394 252.211 82.976C251.25 82.8968 251.025 83.7925 250.208 83.7938C249.773 83.7943 249.392 83.374 248.978 83.2405C248.885 83.2106 248.64 83.5529 248.527 83.5212C248.122 83.408 248.09 83.2731 247.695 83.111C246.289 82.5331 244.43 81.6225 244.854 79.8673C245.081 78.9254 246.624 77.4107 245.547 76.5472C244.536 75.7353 243.177 77.4284 242.619 75.7339C242.223 74.5303 243.189 74.2074 241.961 73.2166C241.058 72.488 240.226 72.2901 240.726 70.9543C241.047 70.0939 242.719 68.7857 242.24 67.7483C241.561 66.2802 238.979 67.7646 239.228 65.1119C239.405 63.2123 241.795 61.8407 241.81 59.9714C241.822 58.6333 240.553 58.6428 240.223 57.7733C239.897 56.9143 240.195 56.9175 240.671 56.3143C241.024 55.866 241.253 55.717 241.517 55.189C241.838 54.5469 242.392 53.7155 242.184 52.9688C241.997 52.2973 241.21 51.8983 241.013 51.1543C240.268 48.3527 246.186 41.9868 247.694 45.8445C248.813 44.5494 250.281 41.8378 252.259 42.0552C253.456 42.1865 252.944 42.5279 253.36 43.219C253.661 43.7202 254.497 43.9752 254.734 44.5177C255.203 43.0614 254.705 40.3625 256.009 39.2938C257.279 38.2523 258.077 40.0849 258.618 41.1047C258.965 40.1424 259.189 38.337 260.388 37.9919C261.671 37.6233 262.472 39.2286 263.097 40.046C263.77 39.0896 265.032 36.2698 266.486 36.6135C267.576 36.8712 268.116 38.692 268.626 39.5325C269.819 38.7486 271.7 36.8612 273.244 37.0609C274.749 37.2547 274.617 38.6653 276.376 38.0884C277.652 37.6695 278.978 36.5574 280.333 36.4741C281.76 36.3862 282.515 37.387 284.101 37.1442C285.784 36.8866 286.041 36.4949 287.139 37.8692C287.68 38.5476 287.537 38.8451 288.477 38.9868C289.271 39.1073 289.967 38.582 290.801 38.913C291.417 39.1575 291.848 39.7285 292.106 40.3154C292.411 41.0087 292.058 42.2096 292.362 42.7553C292.948 43.804 295.16 42.8784 296.154 43.607C297.494 44.5901 296.232 46.0826 296.946 47.1721C297.519 48.0466 299.133 47.8238 299.775 49.0043C300.358 50.0734 300.221 51.4863 299.545 52.477C299.262 52.8932 298.464 53.2383 298.277 53.615C297.892 54.3921 298.215 54.3015 298.439 55.0958C298.868 56.6145 298.525 57.1878 297.354 58.2271C296.677 58.828 296.536 58.6555 296.49 59.5688C296.456 60.2739 297.056 60.9273 296.944 61.7161C296.763 62.9976 295.502 63.8032 295.123 65.063C294.634 66.6846 293.298 67.5721 292.292 68.9066C293.482 69.6248 295.046 70.2198 295.623 71.5674C296.254 73.0378 296.137 75.1303 295.69 76.6215C295.261 78.051 294.344 78.963 293.462 80.0974C292.388 81.4785 292.48 82.5739 292.413 84.2593C292.273 87.8231 290.744 91.059 287.249 92.1911C285.862 92.6398 284.61 93.3005 283.203 93.7189C281.483 94.2315 280.224 94.2732 278.44 94.1718C277.324 94.1088 276.018 93.8679 275.63 95.0502C275.435 95.6412 275.506 97.9416 275.771 98.4664C276.225 99.3653 277.509 99.2457 278.284 100.023C279.68 101.425 279.285 102.619 281.641 102.652C289.274 102.758 296.883 102.169 304.516 102.722C308.279 102.994 311.963 103.645 315.742 103.836C319.901 104.047 324.071 104.117 328.227 104.369C332.15 104.608 335.989 105.122 339.933 104.918C343.616 104.729 347.153 104.476 350.822 104.069C352.077 103.93 354.021 104.13 354.907 103.17C355.399 102.638 355.512 101.726 356.002 101.14C356.455 100.6 357.07 100.208 357.626 99.7864C358.974 98.763 360.245 97.8428 362.024 97.8764C363.582 97.9062 364.825 99.032 366.095 99.8597C367.569 100.821 368.18 101.263 369.927 100.89C371.67 100.519 373.268 99.8308 374.968 99.3245C378.553 98.2572 381.913 96.7221 385.179 94.9013C386.788 94.0042 387.922 93.401 389.775 93.9413C391.674 94.4946 392.214 95.0394 392.237 97.0119C392.244 97.6382 392.005 98.7512 392.725 99.113C393.247 99.3752 394.398 98.643 394.841 98.4505C396.801 97.6001 398.724 96.7144 400.773 96.0936C402.643 95.5266 404.536 95.024 406.413 94.4828C407.983 94.0296 410.077 93.3739 411.642 94.217C415.595 96.3467 409.778 101.758 408.268 103.559C410.152 103.107 414.194 103.365 415.185 105.387C416.358 107.779 414.007 110.152 412.681 111.891C414.538 112.737 418.289 112.009 418.813 114.673C419.253 116.91 416.926 119.162 415.41 120.47C411.486 123.857 405.399 126.227 400.216 126.272C398.901 126.283 397.619 126.027 396.312 125.964C395.354 125.919 394.491 126.25 393.561 126.252C392.25 126.253 391.088 125.995 389.736 126.18C388.178 126.393 386.632 126.655 385.067 126.831C383.614 126.995 382.161 127.144 380.704 127.257C379.744 127.332 378.295 127.121 377.403 127.443C376.249 127.86 376.586 128.277 376.492 129.387C376.376 130.751 375.685 131.984 374.681 132.893C371.031 136.197 364.815 135.404 362.98 130.554C362.534 129.375 363.127 128.759 362.958 127.696C362.789 126.626 361.794 126.662 360.819 126.59C357.853 126.37 354.849 126.35 351.87 126.144C346.104 125.747 340.165 124.938 334.402 125.076C328.387 125.219 322.335 124.857 316.326 124.531C313.523 124.378 310.618 123.395 307.859 123.607C304.928 123.832 301.815 123.201 298.869 122.895C292.282 122.21 284.93 122.011 278.843 119.275C279.324 125.873 280.124 132.572 274.77 137.493C272.526 139.555 269.707 141.917 266.766 142.796C262.974 143.929 259.339 144.868 255.481 145.709C248.306 147.273 241.177 151.015 234.704 154.376C231.659 155.958 228.087 156.574 224.785 157.46C223.214 157.883 221.442 158.439 219.793 158.38C218.169 158.322 217.041 157.218 215.607 156.559C214.235 159.792 212.382 162.751 211.001 165.942C210.317 167.525 209.777 169.207 208.979 170.738C208.37 171.905 207.386 172.533 207.293 173.886C207.067 177.17 207.668 180.597 207.506 183.919C207.331 187.542 206.768 191.219 206.436 194.847C205.718 202.686 206.053 210.578 205.471 218.428C204.939 225.599 205.271 232.714 204.476 239.892C204.255 241.884 204.01 243.874 203.851 245.873C203.746 247.184 203.02 250.204 203.704 251.379C204.003 251.893 204.721 251.948 205.201 252.206C205.951 252.608 206.632 253.223 207.193 253.862C208.375 255.213 208.657 256.822 208.927 258.543C210.457 257.72 216.874 253.495 215.913 258.122C215.615 259.557 214.313 260.331 213.286 261.246C212.533 261.917 211.815 262.629 211.014 263.244C210.474 263.659 209.329 264.173 209.068 264.851C208.603 266.062 211.008 267.791 212.143 267.777C213.738 267.759 215.728 265.366 217.079 264.604C220.665 262.578 220.341 266.952 218.989 268.853C217.969 270.288 218.832 270.177 220.235 270.468C222.428 270.924 224.453 271.312 226.683 271.59C230.943 272.122 235.136 271.435 239.364 272.419C243.573 273.399 246.076 276.026 246.689 280.357C247.013 282.645 247.318 281.496 249.239 282.033C251.013 282.529 252.015 284.558 253.036 285.934C255.076 288.679 258.887 295.594 255.764 298.83C254.438 300.205 251.219 299.855 249.474 300.09C248.351 300.241 246.999 300.765 245.866 300.493C244.789 300.236 244.073 299.272 243.296 298.566C243.285 302.91 243.259 306.684 239.817 309.821C237.039 312.353 233.324 313.515 229.599 313.258C225.949 313.007 222.201 311.522 219.888 308.588C218.667 307.04 217.798 305.14 217.483 303.19C217.338 302.291 217.296 301.346 217.436 300.443C217.52 299.906 218.031 298.933 217.707 298.415C217.138 297.508 214.355 298.262 213.437 298.354C211.012 298.599 208.594 298.905 206.178 299.229C204.181 299.496 202.144 299.78 200.14 299.402C198.418 299.077 197.76 298.891 198.07 300.929C198.692 305.029 197.655 308.665 194.284 311.186C190.91 313.708 187.796 314.208 183.67 313.544C179.9 312.937 176.452 309.378 175.354 305.836C173.892 301.122 175.399 296.829 178.92 293.611C176.785 292.529 175.369 291.891 174.616 289.392C173.828 286.781 174.564 284.034 174.936 281.416C175.736 275.792 175.424 270.319 175.699 264.677C175.82 262.188 176.334 259.654 176.342 257.171C176.347 255.755 176.268 255.806 174.811 255.795C173.907 255.788 172.949 255.851 172.569 254.798C171.65 252.257 175.96 252.471 177.044 251.46C178.337 250.254 177.444 245.496 177.407 243.822C177.284 238.383 177.822 233.071 177.927 227.647C177.975 225.197 178.124 222.621 177.922 220.179C177.841 219.205 177.283 218.417 177.32 217.447C177.367 216.206 177.607 215.045 177.543 213.753C176.981 202.387 176.857 190.811 178.316 179.519C178.403 178.843 178.88 177.321 178.625 176.642C178.238 175.614 177.008 175.978 176.149 175.601C173.746 174.548 173.152 172.876 173.021 170.427C172.943 168.976 172.866 167.525 172.791 166.074C172.752 165.328 172.714 164.583 172.674 163.837C172.627 162.973 172.982 162.001 172.962 161.275C172.955 161.042 172.854 160.694 172.853 160.557C172.574 160.42 172.466 160.219 172.527 159.954C172.514 159.704 172.554 159.461 172.646 159.225C172.661 159.366 172.479 158.425 172.463 158.507C172.489 158.379 172.96 157.615 172.912 157.523C172.692 157.09 172.226 157.615 172.07 156.81C171.94 156.133 172.38 155.338 172.233 154.546C171.838 152.432 172.211 150.536 172.509 148.397Z" fill="black"/>
<path fill-rule="evenodd" clip-rule="evenodd" d="M55.5427 181.585C82.241 181.646 109.002 182.304 135.633 183.093C138.568 183.18 141.512 183.428 144.448 183.554C144.959 183.575 146.639 183.362 147.017 183.909C147.633 184.801 146.223 185.709 145.559 186.116C143.273 187.515 140.247 187.271 137.656 187.359C134.082 187.48 130.506 187.494 126.93 187.444C114.506 187.272 102.076 186.327 89.6779 185.593C82.0409 185.141 74.3799 184.863 66.7321 184.638C62.9573 184.527 59.1794 184.466 55.4046 184.341C54.3853 184.308 52.5287 184.626 52.5282 183.286C52.5277 181.89 54.565 181.66 55.5427 181.585Z" fill="black"/>
<path fill-rule="evenodd" clip-rule="evenodd" d="M87.4722 196.602C106.364 197.416 125.269 197.974 144.163 198.728C145.388 198.777 147.996 198.416 148.455 199.919C148.934 201.481 146.942 203.049 145.624 203.454C143.912 203.98 141.732 203.685 139.946 203.736C137.542 203.804 135.257 203.782 132.862 203.62C123.732 203.002 114.617 202.2 105.486 201.58C100.316 201.229 95.1503 200.814 89.9885 200.368C88.6119 200.25 84.5238 200.618 83.5597 199.497C82.9656 198.806 83.595 197.737 84.1819 197.204C85.1487 196.327 86.2599 196.526 87.4722 196.602Z" fill="black"/>
<path fill-rule="evenodd" clip-rule="evenodd" d="M143.215 217.255C137.076 217.585 130.868 217.099 124.833 216.086C124.011 215.947 122.11 215.932 121.585 215.168C120.782 214.002 122.291 212.985 123.305 212.881C126.116 212.596 129.458 213.577 132.295 213.75C135.262 213.931 138.27 213.615 141.244 213.591C142.944 213.577 144.644 213.566 146.345 213.56C147.342 213.557 148.776 213.305 149.761 213.531C152.517 214.164 149.012 216.485 147.785 216.752C147.359 216.845 143.229 217.457 143.215 217.255Z" fill="black"/>
<path fill-rule="evenodd" clip-rule="evenodd" d="M277.191 69.9717C277.232 69.2512 277.045 67.4304 277.936 67.0889C279.675 66.4233 279.56 70.6912 280.238 71.2921C282.725 73.4951 282.054 65.0073 284.424 67.7446C286.349 69.9689 284.803 75.3286 282.094 76.3285C280.099 77.0648 278.741 75.6479 277.966 74.0068C277.948 73.9688 276.87 69.9544 277.191 69.9717Z" fill="black"/>
<path fill-rule="evenodd" clip-rule="evenodd" d="M279.443 60.2535C280.643 60.0252 282.206 61.2719 281.471 62.4791C280.933 63.3621 277.29 64.731 276.304 64.7541C275.092 64.7827 275.195 63.819 275.582 62.8382C276.187 61.3027 277.802 60.2363 279.443 60.2535Z" fill="black"/>
<path fill-rule="evenodd" clip-rule="evenodd" d="M60.6791 40.914C61.0481 39.378 61.592 37.5586 63.4101 39.0389C64.6309 40.0337 65.5235 42.4867 65.6462 44.0209C65.7929 45.858 64.7844 46.7922 63.1543 45.7616C61.5001 44.716 60.8693 42.7883 60.6791 40.914Z" fill="black"/>
<path fill-rule="evenodd" clip-rule="evenodd" d="M21.2829 60.2277C20.6915 64.3348 17.0488 60.5125 17.2129 58.007C17.298 56.7033 18.0448 55.6346 19.463 56.4167C20.7327 57.1172 21.1747 58.9593 21.2829 60.2277Z" fill="black"/>
<path fill-rule="evenodd" clip-rule="evenodd" d="M228.679 300.266C228.95 299.246 229.009 297.148 230.189 296.7C231.933 296.039 232.69 298.938 232.748 300.106C232.812 301.371 232.37 304.059 230.559 303.835C229.073 303.652 228.975 301.374 228.679 300.266Z" fill="black"/>
<path fill-rule="evenodd" clip-rule="evenodd" d="M184.754 301.894C185.088 300.645 185.153 298.39 186.653 298.012C188.304 297.596 188.809 299.847 188.829 301.12C188.848 302.309 188.183 305.389 186.5 305.198C185.204 305.052 185.031 302.902 184.754 301.894Z" fill="black"/>
</svg>
